<svg xmlns="http://www.w3.org/2000/svg" xmlns:xlink="http://www.w3.org/1999/xlink" version="1.1" width="100px" height="74px" viewBox="0 0 175.5673 117.4546">
<g id="layer_1" data-name="">
<path transform="matrix(1,0,0,-1,1,116.4546)" d="M.2835 115.1711H173.2839V.2835H.2835Z" fill="transparent" fill-rule="evenodd"/>
<path transform="matrix(1,0,0,-1,1,116.4546)" stroke-width=".5669" stroke-linecap="butt" stroke-miterlimit="22.925585" stroke-linejoin="miter" fill="none" stroke="#1a1a18" d="M.2835 115.1711H173.2839V.2835H.2835Z"/>
<path transform="matrix(1,0,0,-1,1,116.4546)" d="M65.7133 17.8438C65.0591 17.8438 64.5358 17.5958 64.1523 17.0629 63.7004 16.4344 63.582 15.5951 63.582 14.8397 63.582 14.0837 63.7013 13.2497 64.1523 12.6204 64.5352 12.0864 65.0582 11.8358 65.7133 11.8358 66.3661 11.8358 66.8869 12.0883 67.2681 12.6204 67.7188 13.2497 67.8385 14.0837 67.8385 14.8397 67.8385 15.5937 67.7211 16.4347 67.2712 17.0629 66.8894 17.5961 66.3664 17.8438 65.7133 17.8438ZM79.115 17.6649V15.3369H80.6165C80.9274 15.3369 81.3237 15.3822 81.5581 15.611 81.788 15.8355 81.8362 16.2085 81.8362 16.5138 81.8362 16.814 81.7892 17.1751 81.5644 17.3965 81.3362 17.6213 80.9481 17.6649 80.6443 17.6649ZM144.4082 17.2602 143.4705 14.0953H145.3476ZM14.2963 17.6202V10.8241C14.2963 10.7844 14.2639 10.7521 14.2243 10.7521H13.0201C12.9804 10.7521 12.9481 10.7844 12.9481 10.8241V17.6202H10.7742C10.7345 17.6202 10.7022 17.6525 10.7022 17.6922V18.8666C10.7022 18.9062 10.7345 18.9386 10.7742 18.9386H16.4599C16.4996 18.9386 16.5319 18.9062 16.5319 18.8666V17.6922C16.5319 17.6525 16.4996 17.6202 16.4599 17.6202ZM25.9685 15.7731H28.8873V18.8666C28.8873 18.9062 28.9196 18.9386 28.9593 18.9386H30.0399C30.0796 18.9386 30.1119 18.9062 30.1119 18.8666V10.8241C30.1119 10.7844 30.0796 10.7521 30.0399 10.7521H28.9593C28.9196 10.7521 28.8873 10.7844 28.8873 10.8241V14.4323H25.9685V10.8241C25.9685 10.7844 25.9362 10.7521 25.8965 10.7521H24.8156C24.7759 10.7521 24.7436 10.7844 24.7436 10.8241V18.8666C24.7436 18.9062 24.7759 18.9386 24.8156 18.9386H25.8965C25.9362 18.9386 25.9685 18.9062 25.9685 18.8666ZM40.4048 17.6202V15.6611H44.2542C44.2939 15.6611 44.3262 15.6288 44.3262 15.5891V14.4595C44.3262 14.4198 44.2939 14.3875 44.2542 14.3875H40.4048V12.1042H44.7245C44.7642 12.1042 44.7965 12.0719 44.7965 12.0322V10.8241C44.7965 10.7844 44.7642 10.7521 44.7245 10.7521H39.0722C39.0325 10.7521 39.0002 10.7844 39.0002 10.8241V18.8666C39.0002 18.9062 39.0325 18.9386 39.0722 18.9386H44.5836C44.6233 18.9386 44.6556 18.9062 44.6556 18.8666V17.6922C44.6556 17.6525 44.6233 17.6202 44.5836 17.6202ZM65.7133 19.1511C66.7395 19.1511 67.6117 18.7968 68.2591 17.9909 68.9712 17.1051 69.186 15.95 69.186 14.8397 69.186 13.7293 68.9712 12.5745 68.2591 11.6887 67.6117 10.8828 66.7395 10.5284 65.7133 10.5284 64.6852 10.5284 63.8107 10.8794 63.161 11.687 62.4484 12.5725 62.2344 13.7293 62.2344 14.8397 62.2344 15.95 62.4481 17.1068 63.161 17.9926 63.8107 18.8002 64.6852 19.1511 65.7133 19.1511ZM82.2368 14.7572C82.4417 14.6509 82.6081 14.4978 82.7181 14.2858 82.878 13.9771 82.9182 13.4878 82.9355 13.1451L82.9936 11.9784C83.0007 11.7641 83.0316 11.255 83.2346 11.1189 83.255 11.105 83.2663 11.0837 83.2663 11.0591V10.8241C83.2663 10.7844 83.234 10.7521 83.1943 10.7521H81.9666C81.9377 10.7521 81.9128 10.7683 81.9009 10.7946 81.8453 10.9188 81.809 11.0526 81.7855 11.1864 81.7466 11.4072 81.7381 11.658 81.7294 11.882L81.6925 12.8421C81.682 13.1193 81.6409 13.612 81.4448 13.8297 81.2696 14.0241 80.9629 14.063 80.7163 14.063H79.1243V10.8241C79.1243 10.7844 79.092 10.7521 79.0523 10.7521H77.9593C77.9196 10.7521 77.8873 10.7844 77.8873 10.8241V18.8666C77.8873 18.9062 77.9196 18.9386 77.9593 18.9386H80.8095C80.907 18.9386 81.0048 18.934 81.1054 18.9269 81.1216 18.9252 81.14 18.9224 81.1553 18.9218 81.7203 18.9218 82.2141 18.7407 82.5792 18.301 82.9712 17.8296 83.0917 17.2174 83.0917 16.6184 83.0917 16.2071 83.0251 15.7887 82.8377 15.4188 82.6963 15.1401 82.499 14.9136 82.2368 14.7572ZM92.0146 18.9386H93.297C93.3367 18.9386 93.369 18.9062 93.369 18.8666V10.8241C93.369 10.7844 93.3367 10.7521 93.297 10.7521H92.0146C91.9749 10.7521 91.9426 10.7844 91.9426 10.8241V18.8666C91.9426 18.9062 91.9749 18.9386 92.0146 18.9386ZM107.142 13.9847H105.3147C105.2751 13.9847 105.2427 14.017 105.2427 14.0567V15.1642C105.2427 15.2039 105.2751 15.2362 105.3147 15.2362H108.2789C108.3186 15.2362 108.3509 15.2039 108.3509 15.1642V10.8241C108.3509 10.7844 108.3186 10.7521 108.2789 10.7521H107.5178C107.483 10.7521 107.4535 10.7765 107.447 10.8108L107.2865 11.6566C107.0563 11.3329 106.772 11.0571 106.4217 10.8604 106.026 10.6379 105.5942 10.5395 105.1413 10.5395 104.1497 10.5395 103.354 10.9491 102.7522 11.7349 102.0691 12.6269 101.8446 13.7364 101.8446 14.8397 101.8446 15.9474 102.0628 17.0802 102.7593 17.9714 103.3824 18.7688 104.2109 19.1511 105.2201 19.1511 105.9956 19.1511 106.7227 18.9516 107.3081 18.428 107.898 17.9008 108.1783 17.189 108.2699 16.4143 108.2724 16.393 108.2665 16.3738 108.2523 16.3579 108.2381 16.342 108.2197 16.3338 108.1984 16.3338H107.0558C107.0206 16.3338 106.9911 16.3585 106.9849 16.393 106.9089 16.8106 106.7363 17.1887 106.412 17.4699 106.0954 17.7443 105.7127 17.8551 105.2972 17.8551 104.6475 17.8551 104.1202 17.6156 103.7384 17.0853 103.2902 16.4622 103.1757 15.6217 103.1757 14.8734 103.1757 14.1194 103.2982 13.2996 103.7438 12.6703 104.1168 12.1433 104.6225 11.8806 105.2683 11.8806 105.8006 11.8806 106.2488 12.0634 106.5994 12.4673 106.9685 12.8923 107.1133 13.434 107.142 13.9847ZM116.8455 18.9386H118.1279C118.1676 18.9386 118.1999 18.9062 118.1999 18.8666V10.8241C118.1999 10.7844 118.1676 10.7521 118.1279 10.7521H116.8455C116.8058 10.7521 116.7735 10.7844 116.7735 10.8241V18.8666C116.7735 18.9062 116.8058 18.9386 116.8455 18.9386ZM131.4984 13.1451V18.8666C131.4984 18.9062 131.5307 18.9386 131.5704 18.9386H132.6538C132.6934 18.9386 132.7258 18.9062 132.7258 18.8666V10.8241C132.7258 10.7844 132.6934 10.7521 132.6538 10.7521H131.4768C131.4493 10.7521 131.4258 10.7663 131.413 10.7906L128.4015 16.5472V10.8241C128.4015 10.7844 128.3692 10.7521 128.3295 10.7521H127.2557C127.2161 10.7521 127.1837 10.7844 127.1837 10.8241V18.8666C127.1837 18.9062 127.2161 18.9386 127.2557 18.9386H128.4418C128.4693 18.9386 128.4931 18.9241 128.5055 18.8997ZM145.7065 12.8327H143.1071L142.5127 10.804C142.5036 10.7728 142.4761 10.7521 142.4435 10.7521H141.2334C141.2096 10.7521 141.1894 10.7623 141.1753 10.7816 141.1614 10.8006 141.1577 10.8232 141.1648 10.8456L143.693 18.8881C143.7026 18.9187 143.7296 18.9386 143.7616 18.9386H145.0647C145.0964 18.9386 145.1237 18.9187 145.1333 18.8884L147.6901 10.8459C147.6972 10.8232 147.6935 10.8009 147.6797 10.7816 147.6658 10.7626 147.6454 10.7521 147.6215 10.7521H146.3842C146.3519 10.7521 146.3244 10.7725 146.3153 10.8034ZM157.2939 12.1153H160.6374C160.6771 12.1153 160.7094 12.083 160.7094 12.0433V10.8241C160.7094 10.7844 160.6771 10.7521 160.6374 10.7521H156.0674C156.0277 10.7521 155.9954 10.7844 155.9954 10.8241V18.8666C155.9954 18.9062 156.0277 18.9386 156.0674 18.9386H157.2219C157.2616 18.9386 157.2939 18.9062 157.2939 18.8666ZM157.231 36.8192H159.0151C159.304 36.8192 159.5171 36.8065 159.6538 36.7818 159.7901 36.7563 159.9126 36.7146 160.0203 36.6571 160.2142 36.5505 160.3613 36.4022 160.4625 36.2137 160.564 36.0241 160.6139 35.8013 160.6139 35.5453 160.6139 35.2981 160.5606 35.0861 160.4551 34.9101 160.3485 34.7343 160.1909 34.5969 159.9809 34.4968 160.16 34.4466 160.2867 34.3624 160.3636 34.2439 160.4392 34.1257 160.486 33.9242 160.5053 33.6419L160.5586 32.883C160.5682 32.7209 160.5895 32.5996 160.6224 32.5196 160.6544 32.4397 160.7023 32.3821 160.7675 32.349V32.2211H160.0458C159.9871 32.3169 159.9469 32.5216 159.9233 32.8363V32.8541L159.8851 33.4542C159.8647 33.7623 159.7986 33.9616 159.6889 34.0532 159.5781 34.145 159.3031 34.1906 158.8618 34.1906H157.8512V32.2211H157.231ZM157.845 36.282V34.7216H158.9119C159.2977 34.7216 159.5696 34.7845 159.7294 34.9092 159.8882 35.034 159.9681 35.2429 159.9681 35.5348 159.9681 35.8075 159.8936 36.0006 159.7431 36.1137 159.5928 36.2254 159.3159 36.282 158.9119 36.282ZM158.9879 38.4228C159.5214 38.4228 160.0271 38.3236 160.5022 38.126 160.9792 37.9278 161.4039 37.6404 161.7744 37.2628 162.1372 36.8963 162.4158 36.4751 162.6106 36.0037 162.8039 35.5303 162.9017 35.0351 162.9017 34.52 162.9017 33.9877 162.8039 33.4871 162.6106 33.0191 162.4158 32.5508 162.1335 32.1375 161.7633 31.7775 161.3786 31.4036 160.9469 31.1165 160.4676 30.9175 159.9908 30.7171 159.4956 30.6179 158.9879 30.6179 158.4697 30.6179 157.9748 30.7171 157.5031 30.9175 157.032 31.1165 156.6091 31.4073 156.2352 31.7883 155.8647 32.1622 155.5826 32.584 155.3873 33.052 155.1943 33.5194 155.0968 34.0089 155.0968 34.52 155.0968 35.0351 155.1977 35.534 155.4018 36.0162 155.6042 36.4986 155.8973 36.932 156.2783 37.3153 156.6343 37.6804 157.0422 37.9548 157.5031 38.1424 157.964 38.3287 158.459 38.4228 158.9879 38.4228ZM162.392 34.484C162.392 34.9557 162.311 35.3985 162.1463 35.8106 161.9819 36.2222 161.7418 36.5854 161.4271 36.8977 161.1023 37.2266 160.7335 37.476 160.3213 37.6461 159.91 37.8173 159.4706 37.9026 159.0046 37.9026 158.5457 37.9026 158.1123 37.8193 157.7055 37.6549 157.299 37.489 156.9427 37.2506 156.6394 36.9411 156.3075 36.6049 156.0523 36.2293 155.8735 35.8106 155.6943 35.3906 155.6062 34.9594 155.6062 34.5149 155.6062 34.0741 155.6912 33.6515 155.8627 33.245 156.0342 32.8365 156.2817 32.4714 156.6034 32.1483 156.9214 31.8231 157.2863 31.5737 157.6984 31.4002 158.1086 31.225 158.5349 31.138 158.972 31.138 159.4327 31.138 159.8678 31.2233 160.2797 31.3911 160.6921 31.5609 161.066 31.8081 161.4059 32.1318 161.7233 32.4425 161.9677 32.7986 162.1372 33.2016 162.307 33.6042 162.392 34.0325 162.392 34.484ZM61.2539 93.0855H64.8264C67.0723 93.0855 68.9094 91.2484 68.9094 89.0025V45.9275C68.9094 43.6816 67.0723 41.8445 64.8264 41.8445H61.2539C59.008 41.8445 57.1708 43.6816 57.1708 45.9275V89.0025C57.1708 91.2484 59.008 93.0855 61.2539 93.0855ZM55.9831 104.6398H69.5979C77.2767 104.6398 82.5358 98.356 82.5262 90.6786L82.4649 43.2907C82.4553 35.6131 77.1426 30.1584 69.465 30.1584H57.1637C49.4858 30.1584 43.2026 35.5408 43.2026 43.2196V90.6786C43.2026 98.3574 48.3043 104.6398 55.9831 104.6398ZM10.6656 104.9261H26.2023V43.8707H38.5294V30.5731H10.6656ZM121.746 104.9261V92.6957H104.3311V74.632H119.2235V62.1692H104.2427L104.2662 30.6814H89.1547V104.9261ZM160.691 104.9261H125.8104V92.4123H135.7138V30.6814H151.1405V92.4123H160.691Z" fill="#fff" fill-rule="evenodd"/>
</g>
</svg>
